<svg version="1.2" xmlns="http://www.w3.org/2000/svg" viewBox="0 0 326 198" width="326" height="198"><style>tspan{white-space:pre}.a{fill:#f3f8fe;stroke:#061884;stroke-width:2}.b{fill:#fff}.c{fill:#061884}.d{fill:#f3f8fe}.e{fill:#fff;stroke:#061884;stroke-linecap:round;stroke-linejoin:round;stroke-width:2}.f{fill:#292f79}</style><path class="a" d="m47.7 9.3h230.1q1.2 0 2.3 0.4 1.2 0.5 2 1.3 0.9 0.9 1.3 2 0.5 1.1 0.5 2.4v157.1h-242.3v-157.1q0-1.3 0.4-2.4 0.5-1.1 1.4-2 0.8-0.8 1.9-1.3 1.2-0.4 2.4-0.4z"/><path class="b" d="m50.9 173.5q-0.2 0-0.4-0.1-0.2-0.1-0.3-0.2-0.2-0.2-0.2-0.3-0.1-0.2-0.1-0.4v-152.9q0-0.4 0.1-0.8 0.2-0.4 0.5-0.6 0.2-0.3 0.6-0.5 0.4-0.1 0.8-0.1h220.7q0.6 0 1.2 0.2 0.5 0.2 0.9 0.6 0.5 0.5 0.7 1 0.2 0.6 0.2 1.2v151.9q0 0.2-0.1 0.4 0 0.1-0.2 0.3-0.1 0.1-0.3 0.2-0.2 0.1-0.4 0.1z"/><path fill-rule="evenodd" class="c" d="m274.1 16.9q0.8 0.3 1.3 0.8 0.6 0.6 0.9 1.3 0.3 0.8 0.3 1.6v151.9q0 0.4-0.1 0.7-0.2 0.4-0.5 0.7-0.3 0.3-0.6 0.4-0.4 0.2-0.8 0.2h-223.7q-0.4 0-0.8-0.2-0.4-0.1-0.6-0.4-0.3-0.3-0.5-0.7-0.1-0.3-0.1-0.7v-152.9q0-0.6 0.2-1.2 0.2-0.5 0.7-1 0.4-0.4 0.9-0.6 0.6-0.2 1.2-0.2h220.7q0.8 0 1.5 0.3zm-222.2 1.7q-0.2 0-0.4 0-0.2 0.1-0.3 0.3-0.2 0.1-0.2 0.3-0.1 0.2-0.1 0.4v152.9h223.7v-151.9q0-0.4-0.1-0.8-0.2-0.4-0.5-0.6-0.3-0.3-0.6-0.5-0.4-0.1-0.8-0.1z"/><path fill-rule="evenodd" class="d" d="m273.4 18.7q0.3 0.2 0.6 0.5 0.3 0.2 0.5 0.6 0.1 0.4 0.1 0.8v151.9h-223.7v-152.9q0-0.2 0.1-0.4 0-0.2 0.2-0.3 0.1-0.2 0.3-0.3 0.2 0 0.4 0h220.7q0.4 0 0.8 0.1zm-220.5 1.9v149.9h219.7v-149.9z"/><path class="e" d="m14.6 187.9h296.3"/><path class="d" d="m35.3 187.9c-2 0-4-0.4-5.9-1.2-1.9-0.7-3.6-1.9-5-3.3-1.4-1.5-2.6-3.2-3.4-5-0.7-1.9-1.1-3.9-1.1-6q0-0.2 0-0.4 0.1-0.1 0.3-0.3 0.1-0.1 0.3-0.2 0.2-0.1 0.4-0.1h283.7q0.2 0 0.4 0.1 0.2 0.1 0.3 0.2 0.2 0.2 0.3 0.3 0 0.2 0 0.4c0 2.1-0.4 4.1-1.2 6-0.7 1.8-1.9 3.5-3.3 5-1.5 1.4-3.2 2.6-5 3.3-1.9 0.8-3.9 1.2-6 1.2z"/><path fill-rule="evenodd" class="c" d="m305.4 170.6q0.4 0.1 0.6 0.4 0.3 0.3 0.5 0.7 0.1 0.3 0.1 0.7c0 2.2-0.4 4.3-1.2 6.3-0.9 2-2.1 3.9-3.6 5.4-1.5 1.5-3.4 2.7-5.4 3.6-2 0.8-4.1 1.2-6.3 1.2h-254.8c-2.1 0-4.3-0.4-6.3-1.2-2-0.9-3.8-2.1-5.3-3.6-1.5-1.5-2.8-3.4-3.6-5.4-0.8-2-1.2-4.1-1.2-6.3q0-0.4 0.1-0.7 0.2-0.4 0.4-0.7 0.3-0.3 0.7-0.4 0.4-0.2 0.8-0.2h283.7q0.4 0 0.8 0.2zm-284.5 1.8c0 1.9 0.3 3.8 1.1 5.6 0.7 1.7 1.8 3.3 3.1 4.7 1.3 1.3 2.9 2.4 4.7 3.1 1.8 0.7 3.6 1.1 5.5 1.1h254.8c1.9 0 3.8-0.4 5.6-1.1 1.7-0.7 3.3-1.8 4.7-3.1 1.3-1.4 2.4-3 3.1-4.7 0.8-1.8 1.1-3.7 1.1-5.6z"/><path class="c" d="m185.2 173q0 0.9-0.3 1.7-0.3 0.8-0.9 1.4-0.7 0.7-1.5 1-0.8 0.3-1.6 0.3h-36.3q-0.8 0-1.6-0.3-0.9-0.3-1.5-1-0.6-0.6-0.9-1.4-0.4-0.8-0.4-1.7v-0.6h45z"/><path class="b" d="m207.2 81.8c-17.2 0-31-13.9-31-31 0-17.2 13.8-31 31-31 17.1 0 31 13.8 31 31 0 17.1-13.9 31-31 31z"/><path fill-rule="evenodd" class="f" d="m172.3 78.8c2.7 1.2 5.2 2.8 7.3 4.9 2.1 2.1 3.7 4.5 4.8 7.3 1.2 2.7 1.8 5.6 1.8 8.5 0 9.1-5.5 17.2-13.9 20.7-8.3 3.5-17.9 1.6-24.3-4.8-6.5-6.4-8.4-16-4.9-24.4 3.4-8.4 11.6-13.8 20.6-13.9 3 0 5.9 0.6 8.6 1.7zm-22.5 35.3c1.8 1.8 4 3.2 6.4 4.1 2.4 1 4.9 1.5 7.5 1.5 2.6 0 5.1-0.5 7.5-1.5 2.4-0.9 4.6-2.3 6.4-4.1-1.6-2.1-3.8-3.8-6.2-4.9-2.4-1.2-5-1.8-7.7-1.8-2.7 0-5.3 0.6-7.7 1.8-2.5 1.1-4.6 2.8-6.3 4.9zm32.2-23.1c-3.3-7.1-10.4-11.6-18.3-11.6-7.8 0-14.9 4.5-18.2 11.6-3.3 7.1-2.2 15.4 2.8 21.4q0.9-1.1 2-2.1 1.2-1 2.4-1.9 1.3-0.8 2.6-1.4 1.4-0.7 2.8-1.1c-4.7-2.5-7.1-8-5.8-13.2 1.3-5.3 6-8.9 11.4-8.9 5.4 0 10.2 3.6 11.5 8.9 1.3 5.2-1.1 10.7-5.9 13.2q1.5 0.5 2.9 1.1 1.3 0.6 2.6 1.4 1.2 0.9 2.3 1.9 1.2 1 2.1 2.1c5-6 6.1-14.3 2.8-21.4zm-27.7 4.6c0 1.3 0.2 2.5 0.7 3.6 0.5 1.2 1.2 2.2 2 3.1 0.9 0.9 2 1.6 3.1 2.1 1.2 0.5 2.4 0.7 3.6 0.7 3.9 0 7.4-2.3 8.9-5.9 1.4-3.5 0.6-7.6-2.1-10.4-2.7-2.7-6.9-3.5-10.4-2-3.6 1.5-5.9 5-5.9 8.8z"/><text style="transform:matrix(1,0,0,1,147,101)" ></text><text style="transform:matrix(1,0,0,1,209,82)" ></text></svg>