<svg version="1.2" xmlns="http://www.w3.org/2000/svg" viewBox="0 0 326 198" width="326" height="198"><style>.a{fill:#f3f8fe;stroke:#061884;stroke-linecap:round;stroke-linejoin:round;stroke-width:2}.b{fill:#fff}.c{fill:none;stroke:#061884;stroke-linecap:round;stroke-linejoin:round;stroke-width:2}.d{fill:#061884}</style><path class="a" d="m41.6 15.4c0-3.4 2.7-6.1 6.1-6.1h230.1c3.4 0 6.1 2.7 6.1 6.1v157.1c0 3.3-2.7 6.1-6.1 6.1h-230.1c-3.4 0-6.1-2.8-6.1-6.1z"/><path class="b" d="m52.9 20.6h219.7v155.9h-219.7z"/><path class="c" d="m49.9 19.6c0-1.1 0.9-2 2-2h221.7c1.1 0 2 0.9 2 2v151.9c0 1.1-0.9 2-2 2h-221.7c-1.1 0-2-0.9-2-2z"/><path class="c" d="m14.6 187.9h296.3"/><path class="a" d="m305.6 172.4c0 2.1-0.4 4.1-1.1 6-0.8 1.8-2 3.5-3.4 5-1.4 1.4-3.1 2.6-5 3.3-1.9 0.8-3.9 1.2-6 1.2h-254.8c-2 0-4-0.4-5.9-1.2-1.9-0.7-3.6-1.9-5-3.3-1.4-1.5-2.6-3.2-3.4-5-0.7-1.9-1.1-3.9-1.1-6q0-0.2 0-0.4 0.1-0.1 0.3-0.3 0.1-0.1 0.3-0.2 0.2-0.1 0.4-0.1h283.7q0.2 0 0.4 0.1 0.2 0.1 0.3 0.2 0.2 0.2 0.3 0.3 0 0.2 0 0.4z"/><path class="d" d="m185.3 173q-0.1 0.9-0.4 1.7-0.3 0.8-0.9 1.4-0.7 0.7-1.5 1-0.8 0.3-1.6 0.3h-36.3q-0.8 0-1.6-0.3-0.9-0.3-1.5-1-0.6-0.6-0.9-1.4-0.4-0.8-0.4-1.7v-0.6h45z"/></svg>